<svg width="20" height="20" viewBox="0 0 20 20" fill="none" xmlns="http://www.w3.org/2000/svg">
<path d="M18.6579 1.34302C17.7929 0.478017 16.6429 0.000976562 15.4199 0.000976562C14.1969 0.000976562 13.0469 0.478017 12.1819 1.34302L1.6489 11.876C1.2039 12.321 0.913894 12.884 0.810894 13.504L0.0209137 18.242C-0.0590863 18.722 0.0989338 19.215 0.441934 19.558C0.726934 19.843 1.1139 20 1.5109 20C1.5939 20 1.67589 19.993 1.75889 19.979L6.49693 19.189C7.11693 19.086 7.67992 18.796 8.1249 18.351L18.6579 7.81799C19.5229 6.953 19.9999 5.80196 19.9999 4.57996C19.9999 3.35696 19.5229 2.20802 18.6579 1.34302ZM6.71092 16.939C6.56292 17.087 6.37492 17.184 6.16892 17.218L2.10691 17.895L2.78391 13.833C2.81791 13.627 2.91491 13.439 3.06291 13.291L10.9689 5.38501L14.6169 9.03299L6.71092 16.939ZM17.2439 6.40503L16.0309 7.61792L12.3829 3.96997L13.5959 2.75696C14.0829 2.26996 14.7319 2.00098 15.4199 2.00098C16.1089 2.00098 16.7569 2.26996 17.2439 2.75696C17.7309 3.24396 17.9999 3.89193 17.9999 4.58093C17.9999 5.26993 17.7309 5.91803 17.2439 6.40503Z" fill="url(#paint0_linear_107_300)"/>
<defs>
<linearGradient id="paint0_linear_107_300" x1="10.0002" y1="0.000976562" x2="10.0002" y2="20" gradientUnits="userSpaceOnUse">
<stop stop-color="#F1C042"/>
<stop offset="1" stop-color="#F79D3D"/>
</linearGradient>
</defs>
</svg>
