<svg width="1200" height="305" viewBox="0 0 1200 305" fill="none" xmlns="http://www.w3.org/2000/svg">
<path d="M250.425 130.544C172.041 175.798 119.71 231.881 133.54 255.835C147.351 279.757 222.105 262.511 300.488 217.256C378.904 171.983 431.216 115.867 417.405 91.9458C403.575 67.9916 328.84 85.2705 250.425 130.544ZM291.374 201.469C221.061 242.065 155.028 259.355 143.901 240.082C132.774 220.809 180.764 172.269 251.077 131.674C321.422 91.06 387.455 73.7691 398.582 93.042C409.71 112.315 361.719 160.856 291.374 201.469Z" fill="white"/>
<path d="M681.5 304.582C639.952 304.582 605.703 290.153 578.752 261.295C589.07 251.908 601.837 245.636 615.573 243.205C629.309 240.774 643.452 242.284 656.366 247.559C663.887 250.654 671.94 252.25 680.073 252.256C691.171 252.256 699.653 249.799 705.522 244.883C711.388 239.97 714.321 233.866 714.323 226.569C714.435 222.543 713.359 218.572 711.23 215.153C709.165 211.987 704.884 208.974 698.387 206.115C691.883 203.261 682.131 200.406 669.132 197.552C646.931 192.163 630.441 185.504 619.661 177.573C608.877 169.651 601.741 160.771 598.255 150.935C594.774 141.163 593.004 130.864 593.023 120.491C593.023 98.929 601.189 80.9321 617.52 66.5002C633.851 52.074 656.446 44.8594 685.307 44.8564C705.285 44.8564 722.409 47.8691 736.681 53.8946C750.951 59.9222 764.428 71.1801 777.113 87.6683L761.062 99.9528C746.403 111.171 726.592 112.06 710.502 103.015C710.428 102.973 710.353 102.932 710.279 102.891C703.092 98.8404 694.983 96.7105 686.733 96.7064C677.851 96.7064 670.477 98.4506 664.613 101.939C658.741 105.432 655.808 110.982 655.814 118.589C655.814 122.714 657.716 126.757 661.522 130.718C665.327 134.687 674.523 138.572 689.112 142.372C713.207 148.401 731.601 155.457 744.291 163.54C756.972 171.628 765.693 180.745 770.454 190.892C775.305 201.483 777.742 213.019 777.589 224.667C777.773 239.286 773.364 253.595 764.983 265.575C756.577 277.631 745.16 287.145 730.733 294.117C716.3 301.089 699.889 304.577 681.5 304.582Z" fill="white"/>
<path d="M921.246 304.581C895.871 304.581 873.514 298.714 854.174 286.981C835.249 275.689 819.72 259.502 809.222 240.126C798.594 220.623 793.282 198.979 793.287 175.194C793.287 151.41 798.837 129.607 809.936 109.787C820.696 90.3206 836.356 74.0044 855.365 62.456C874.547 50.7274 896.507 44.8605 921.246 44.8555C945.983 44.8555 967.785 50.7223 986.653 62.456C1005.35 74.0138 1020.62 90.3533 1030.89 109.787C1041.51 129.61 1046.82 151.413 1046.83 175.194C1046.83 178.688 1046.67 182.335 1046.35 186.135C1046.03 189.941 1045.56 193.905 1044.92 198.027H859.884C863.369 212.617 870.425 224.509 881.051 233.704C891.673 242.905 905.072 247.503 921.246 247.499C935.198 247.499 947.328 244.328 957.637 237.985C957.74 237.921 957.842 237.858 957.945 237.794C966.7 232.258 976.926 229.504 987.277 229.895C997.628 230.286 1007.62 233.804 1015.93 239.985L1031.61 251.78C1021.77 267.321 1007.03 280.006 987.367 289.835C967.7 299.661 945.66 304.577 921.246 304.581ZM920.295 100.035C905.073 100.035 892.071 104.634 881.289 113.83C870.504 123.032 863.369 135.083 859.884 149.983H982.135C978.635 136.335 971.091 124.065 960.491 114.782C949.55 104.956 936.151 100.04 920.295 100.035Z" fill="white"/>
<path d="M1159.09 298.398C1134.67 298.398 1115.96 292.373 1102.96 280.322C1089.95 268.274 1083.45 248.771 1083.46 221.813V105.745H1048.73V51.0404H1083.46V1.09284L1091.37 0.27222C1098.48 -0.464897 1105.66 0.299014 1112.46 2.51459C1119.25 4.73017 1125.51 8.34799 1130.81 13.1338C1136.12 17.9196 1140.36 23.7668 1143.27 30.2966C1146.17 36.8265 1147.67 43.8936 1147.67 51.0403C1154.55 51.0403 1161.35 52.3938 1167.7 55.0234C1174.05 57.6531 1179.82 61.5074 1184.67 66.3663C1189.53 71.2252 1193.39 76.9935 1196.02 83.3419C1198.65 89.6904 1200 96.4946 1200 103.366V105.745H1147.67V218.483C1147.67 233.705 1154.33 241.316 1167.65 241.316C1171.15 241.316 1174.61 242.005 1177.85 243.344C1181.08 244.682 1184.02 246.645 1186.49 249.118C1188.96 251.592 1190.93 254.529 1192.26 257.761C1193.6 260.993 1194.29 264.457 1194.29 267.955V298.398H1159.09Z" fill="white"/>
<path d="M261.434 130.318V212.27C228.025 228.966 196.441 240.042 174.289 242.687V173.882C174.289 173.504 174.289 173.126 174.272 172.765C173.992 161.3 169.203 150.409 160.944 142.452C152.686 134.496 141.623 130.116 130.156 130.263C118.689 130.41 107.743 135.072 99.6907 143.238C91.6387 151.403 87.1307 162.414 87.1444 173.882V261.027C87.1471 266.75 86.0221 272.419 83.8336 277.707C81.6452 282.996 78.4361 287.802 74.3898 291.85C70.3434 295.899 65.5391 299.11 60.2514 301.301C54.9636 303.492 49.2959 304.62 43.5722 304.62C37.8485 304.62 32.1808 303.492 26.893 301.301C21.6052 299.11 16.8009 295.899 12.7546 291.85C8.70829 287.802 5.49923 282.996 3.31075 277.707C1.12227 272.419 -0.00273705 266.75 5.00044e-06 261.027V43.1572H174.289C195.52 43.1597 216.02 50.9111 231.941 64.9562C247.862 79.0014 258.109 98.3747 260.76 119.439C261.154 122.58 261.373 125.74 261.417 128.905C261.434 129.381 261.434 129.842 261.434 130.318Z" fill="white"/>
<path d="M175.308 270.361C198.955 267.469 229.29 257.708 261.433 242.803V261.027C261.44 271.773 257.475 282.143 250.3 290.143C243.125 298.143 233.246 303.209 222.562 304.367C211.878 305.525 201.143 302.693 192.421 296.416C183.698 290.139 177.603 280.859 175.308 270.361Z" fill="white"/>
<path d="M376.038 86.7374V132.011C374.838 133.292 373.556 134.623 372.225 135.971C352.259 156.167 322.712 177.99 289.041 197.43C288.992 197.463 288.942 197.48 288.893 197.513V86.7374C288.891 75.9868 292.864 65.6151 300.048 57.617C307.231 49.619 317.119 44.5594 327.808 43.4113C338.497 42.2633 349.233 45.1079 357.951 51.3981C366.669 57.6882 372.754 66.9798 375.035 77.4856C375.704 80.524 376.04 83.6262 376.038 86.7374Z" fill="white"/>
<path d="M550.343 86.7375V304.607H376.038C354.864 304.606 334.416 296.896 318.512 282.919C302.608 268.941 292.336 249.651 289.616 228.653C294.02 226.287 298.419 223.833 302.812 221.291C330.567 205.269 355.759 187.522 376.038 169.84V173.882C376.038 174.26 376.054 174.638 376.054 175.016C376.339 186.479 381.131 197.367 389.391 205.32C397.651 213.273 408.713 217.649 420.178 217.5C431.644 217.35 442.588 212.688 450.638 204.523C458.688 196.358 463.195 185.348 463.182 173.882V86.7375C463.19 75.1844 467.785 64.1071 475.957 55.9406C484.129 47.774 495.209 43.1865 506.763 43.1865C518.316 43.1865 529.396 47.774 537.568 55.9406C545.74 64.1071 550.335 75.1844 550.343 86.7375Z" fill="white"/>
</svg>
