<svg width="1500" height="1500" viewBox="0 0 1500 1500" fill="none" xmlns="http://www.w3.org/2000/svg">
<g clip-path="url(#clip0_103_333)">
<path d="M1500 0H0V1500H1500V0Z" fill="url(#paint0_linear_103_333)"/>
<path d="M400.425 728.243C322.041 773.498 269.71 829.58 283.54 853.535C297.351 877.456 372.105 860.21 450.488 814.955C528.904 769.682 581.216 713.567 567.405 689.645C553.575 665.691 478.84 682.97 400.425 728.243ZM441.374 799.169C371.061 839.764 305.028 857.054 293.901 837.782C282.774 818.509 330.764 769.968 401.077 729.373C471.422 688.759 537.455 671.468 548.582 690.741C559.71 710.014 511.719 758.555 441.374 799.169Z" fill="white"/>
<path d="M831.5 902.281C789.952 902.281 755.702 887.852 728.751 858.994C739.07 849.607 751.837 843.335 765.573 840.904C779.308 838.473 793.452 839.983 806.365 845.258C813.887 848.353 821.94 849.949 830.073 849.956C841.17 849.956 849.653 847.498 855.522 842.582C861.387 837.669 864.321 831.565 864.323 824.269C864.435 820.242 863.359 816.271 861.23 812.852C859.165 809.686 854.884 806.673 848.387 803.814C841.883 800.96 832.131 798.106 819.132 795.252C796.931 789.863 780.441 783.203 769.661 775.273C758.877 767.35 751.741 758.47 748.254 748.634C744.773 738.862 743.004 728.563 743.023 718.19C743.023 696.628 751.189 678.631 767.52 664.199C783.85 649.773 806.446 642.559 835.306 642.556C855.284 642.556 872.409 645.568 886.681 651.594C900.95 657.621 914.428 668.879 927.113 685.367L911.061 697.652C896.403 708.87 876.592 709.76 860.502 700.714C860.427 700.673 860.353 700.631 860.279 700.59C853.092 696.54 844.982 694.41 836.733 694.406C827.85 694.406 820.477 696.15 814.613 699.638C808.741 703.132 805.808 708.682 805.813 716.288C805.813 720.413 807.716 724.456 811.522 728.418C815.327 732.386 824.523 736.271 839.111 740.072C863.207 746.1 881.6 753.156 894.29 761.24C906.972 769.327 915.692 778.444 920.453 788.592C925.305 799.182 927.742 810.718 927.588 822.366C927.772 836.986 923.363 851.294 914.983 863.275C906.577 875.331 895.16 884.844 880.733 891.816C866.3 898.788 849.889 902.276 831.5 902.281Z" fill="white"/>
<path d="M1071.25 902.281C1045.87 902.281 1023.51 896.414 1004.17 884.68C985.249 873.388 969.72 857.201 959.222 837.825C948.594 818.322 943.282 796.678 943.287 772.893C943.287 749.109 948.837 727.306 959.936 707.486C970.696 688.02 986.356 671.704 1005.36 660.155C1024.55 648.427 1046.51 642.56 1071.25 642.555C1095.98 642.555 1117.78 648.422 1136.65 660.155C1155.35 671.713 1170.62 688.053 1180.89 707.486C1191.51 727.309 1196.82 749.112 1196.83 772.893C1196.83 776.387 1196.67 780.034 1196.35 783.834C1196.03 787.64 1195.56 791.604 1194.92 795.726H1009.88C1013.37 810.316 1020.43 822.209 1031.05 831.403C1041.67 840.604 1055.07 845.203 1071.25 845.198C1085.2 845.198 1097.33 842.027 1107.64 835.684C1107.74 835.621 1107.84 835.557 1107.94 835.493C1116.7 829.957 1126.93 827.203 1137.28 827.594C1147.63 827.985 1157.62 831.503 1165.93 837.685L1181.61 849.479C1171.77 865.02 1157.03 877.706 1137.37 887.534C1117.7 897.36 1095.66 902.276 1071.25 902.281ZM1070.29 697.735C1055.07 697.735 1042.07 702.333 1031.29 711.529C1020.5 720.731 1013.37 732.782 1009.88 747.682H1132.14C1128.64 734.034 1121.09 721.764 1110.49 712.481C1099.55 702.655 1086.15 697.739 1070.29 697.735Z" fill="white"/>
<path d="M1309.09 896.097C1284.67 896.097 1265.96 890.072 1252.96 878.021C1239.95 865.973 1233.45 846.47 1233.46 819.512V703.444H1198.73V648.74H1233.46V598.792L1241.37 597.971C1248.48 597.234 1255.66 597.998 1262.46 600.214C1269.25 602.429 1275.51 606.047 1280.81 610.833C1286.12 615.619 1290.36 621.466 1293.27 627.996C1296.17 634.526 1297.67 641.593 1297.67 648.74C1304.55 648.74 1311.35 650.093 1317.7 652.723C1324.05 655.352 1329.82 659.207 1334.67 664.065C1339.53 668.924 1343.39 674.693 1346.02 681.041C1348.65 687.39 1350 694.194 1350 701.065V703.444H1297.67V816.182C1297.67 831.404 1304.33 839.015 1317.65 839.015C1321.15 839.015 1324.61 839.704 1327.85 841.043C1331.08 842.381 1334.02 844.344 1336.49 846.817C1338.96 849.291 1340.93 852.228 1342.26 855.46C1343.6 858.692 1344.29 862.156 1344.29 865.654V896.097H1309.09Z" fill="white"/>
<path d="M411.434 728.017V809.969C378.025 826.665 346.441 837.741 324.289 840.387V771.581C324.289 771.203 324.289 770.825 324.272 770.464C323.992 759 319.203 748.108 310.944 740.151C302.686 732.195 291.623 727.815 280.156 727.962C268.689 728.11 257.743 732.771 249.691 740.937C241.639 749.103 237.131 760.114 237.144 771.581V858.726C237.147 864.45 236.022 870.118 233.834 875.407C231.645 880.696 228.436 885.501 224.39 889.55C220.343 893.598 215.539 896.809 210.251 899C204.964 901.191 199.296 902.319 193.572 902.319C187.848 902.319 182.181 901.191 176.893 899C171.605 896.809 166.801 893.598 162.755 889.55C158.708 885.501 155.499 880.696 153.311 875.407C151.122 870.118 149.997 864.45 150 858.726V640.856H324.289C345.52 640.859 366.02 648.61 381.941 662.655C397.862 676.701 408.109 696.074 410.76 717.139C411.154 720.279 411.373 723.439 411.417 726.604C411.434 727.081 411.434 727.541 411.434 728.017Z" fill="white"/>
<path d="M325.308 868.06C348.955 865.168 379.29 855.407 411.433 840.502V858.726C411.44 869.473 407.475 879.842 400.3 887.842C393.124 895.842 383.246 900.908 372.562 902.066C361.878 903.224 351.143 900.392 342.421 894.115C333.698 887.838 327.603 878.558 325.308 868.06Z" fill="white"/>
<path d="M526.038 684.437V729.71C524.838 730.991 523.556 732.323 522.225 733.67C502.259 753.866 472.712 775.689 439.041 795.13C438.992 795.162 438.942 795.179 438.893 795.212V684.437C438.891 673.686 442.864 663.314 450.048 655.316C457.231 647.318 467.119 642.259 477.808 641.111C488.497 639.963 499.233 642.807 507.951 649.097C516.669 655.387 522.754 664.679 525.035 675.185C525.704 678.223 526.04 681.325 526.038 684.437Z" fill="white"/>
<path d="M700.343 684.437V902.306H526.038C504.864 902.305 484.416 894.595 468.512 880.618C452.608 866.64 442.336 847.351 439.616 826.353C444.02 823.986 448.419 821.532 452.812 818.991C480.567 802.968 505.759 785.221 526.038 767.539V771.581C526.038 771.959 526.054 772.337 526.054 772.715C526.339 784.178 531.131 795.066 539.391 803.019C547.651 810.972 558.713 815.348 570.178 815.199C581.644 815.05 592.588 810.387 600.638 802.222C608.688 794.057 613.195 783.048 613.182 771.581V684.437C613.19 672.884 617.785 661.806 625.957 653.64C634.129 645.473 645.209 640.886 656.763 640.886C668.316 640.886 679.396 645.473 687.568 653.64C695.74 661.806 700.335 672.884 700.343 684.437Z" fill="white"/>
</g>
<defs>
<linearGradient id="paint0_linear_103_333" x1="0" y1="750" x2="1500" y2="750" gradientUnits="userSpaceOnUse">
<stop stop-color="#F1C042"/>
<stop offset="1" stop-color="#F79D3D"/>
</linearGradient>
<clipPath id="clip0_103_333">
<rect width="1500" height="1500" fill="white"/>
</clipPath>
</defs>
</svg>
